<svg width="24" height="24" viewBox="0 0 24 24" fill="none" xmlns="http://www.w3.org/2000/svg">
<path d="M10 20H14V20C14 21.1046 13.1046 22 12 22V22C10.8954 22 10 21.1046 10 20V20Z" fill="#12131A"/>
<path opacity="0.25" d="M13.0044 4H10.9956L9.96923 4.36922C7.58798 5.22582 6.0002 7.48439 6.0002 10.015V13.3354C6.0002 14.0691 5.6552 14.7601 5.06874 15.2011C3.02136 16.7405 4.11005 20 6.67157 20H17.3287C19.8903 20 20.979 16.7405 18.9316 15.2011C18.3452 14.7602 18.0002 14.0691 18.0002 13.3354V10.0151C18.0002 7.48444 16.4123 5.22582 14.031 4.36927L13.0044 4Z" fill="#12131A"/>
<path d="M11 3C11 2.44772 11.4477 2 12 2V2C12.5523 2 13 2.44772 13 3V4H11V3Z" fill="#12131A"/>
</svg>
