<svg width="24" height="24" viewBox="0 0 24 24" fill="none" xmlns="http://www.w3.org/2000/svg">
<path d="M10 20H14C14 21.1046 13.1046 22 12 22C10.8954 22 10 21.1046 10 20Z" fill="#12131A"/>
<path fill-rule="evenodd" clip-rule="evenodd" d="M6.87628 6.87598C6.32037 7.78587 6.00002 8.85537 6.00002 9.9997V11.9571C6.00002 12.3878 5.84411 12.8039 5.5611 13.1286L4.91666 13.8679C2.82984 16.262 4.53017 19.9997 7.70606 19.9997H16.294C17.3663 19.9997 18.2704 19.5736 18.9173 18.917L17.5009 17.5006C17.2036 17.8032 16.7875 17.9997 16.294 17.9997H7.70606C6.2467 17.9997 5.46538 16.2822 6.4243 15.1821L7.06874 14.4427C7.66921 13.7539 8.00002 12.8709 8.00002 11.9571V9.9997C8.00002 9.41277 8.12643 8.85536 8.35352 8.35322L6.87628 6.87598Z" fill="#12131A"/>
<path d="M12 2C11.4477 2 11 2.44772 11 3V4C10.4477 4 10 4.44772 10 5C10 5.55228 10.4477 6 11 6H12C14.2091 6 16 7.79086 16 10V11C16 11.5523 16.4477 12 17 12C17.5523 12 18 11.5523 18 11V10C18 7.02584 15.836 4.5571 12.9967 4.0824C12.9989 4.05522 13 4.02774 13 4V3C13 2.44772 12.5523 2 12 2Z" fill="#12131A"/>
<path fill-rule="evenodd" clip-rule="evenodd" d="M2.29289 2.29289C2.68342 1.90237 3.31658 1.90237 3.70711 2.29289L21.7071 20.2929C22.0976 20.6834 22.0976 21.3166 21.7071 21.7071C21.3166 22.0976 20.6834 22.0976 20.2929 21.7071L2.29289 3.70711C1.90237 3.31658 1.90237 2.68342 2.29289 2.29289Z" fill="#12131A"/>
</svg>
