<svg width="24" height="24" viewBox="0 0 24 24" fill="none" xmlns="http://www.w3.org/2000/svg">
<path fill-rule="evenodd" clip-rule="evenodd" d="M4.00006 7C4.00006 4.23858 6.23864 2 9.00006 2H15C17.7614 2 20 4.23858 20 7V18.9892C20 21.5429 17.0127 22.9289 15.0628 21.2799L12.6458 19.2358C12.273 18.9205 11.7271 18.9205 11.3543 19.2358L8.9373 21.2799C6.9874 22.9289 4.00006 21.543 4.00006 18.9892V7ZM9.00006 4C7.34321 4 6.00006 5.34315 6.00006 7V18.9892C6.00006 19.8405 6.99584 20.3025 7.64581 19.7528L10.0628 17.7087C11.1812 16.7629 12.819 16.7629 13.9373 17.7087L16.3543 19.7528C17.0042 20.3024 18 19.8405 18 18.9892V7C18 5.34315 16.6569 4 15 4H9.00006Z" fill="#12131A"/>
</svg>
