<svg width="24" height="24" viewBox="0 0 24 24" fill="none" xmlns="http://www.w3.org/2000/svg">
<path d="M4.60814 4.6084C4.22038 5.31888 4 6.13384 4 7.00026V18.9895C4 21.5432 6.98734 22.9292 8.93724 21.2802L11.3542 19.2361C11.727 18.9208 12.273 18.9208 12.6457 19.2361L15.0627 21.2801C16.7735 22.727 19.2829 21.8375 19.8726 19.8728L17.9999 18.0002V18.9895C17.9999 19.8407 17.0042 20.3027 16.3542 19.753L13.9372 17.709C12.8189 16.7632 11.1811 16.7632 10.0628 17.7089L7.64575 19.753C6.99578 20.3027 6 19.8407 6 18.9895V7.00026C6 6.69718 6.04495 6.40459 6.12854 6.1288L4.60814 4.6084Z" fill="#12131A"/>
<path fill-rule="evenodd" clip-rule="evenodd" d="M8 3C8 2.44772 8.44772 2 9 2H14.9999C17.7614 2 19.9999 4.23858 19.9999 7V13C19.9999 13.5523 19.5522 14 18.9999 14C18.4477 14 17.9999 13.5523 17.9999 13V7C17.9999 5.34315 16.6568 4 14.9999 4H9C8.44772 4 8 3.55228 8 3Z" fill="#12131A"/>
<path fill-rule="evenodd" clip-rule="evenodd" d="M2.29289 2.29289C2.68342 1.90237 3.31658 1.90237 3.70711 2.29289L21.7071 20.2929C22.0976 20.6834 22.0976 21.3166 21.7071 21.7071C21.3166 22.0976 20.6834 22.0976 20.2929 21.7071L2.29289 3.70711C1.90237 3.31658 1.90237 2.68342 2.29289 2.29289Z" fill="#12131A"/>
</svg>
