<svg width="24" height="24" viewBox="0 0 24 24" fill="none" xmlns="http://www.w3.org/2000/svg">
<path opacity="0.25" d="M4 21C4 20.4477 4.44772 20 5 20H19C19.5523 20 20 20.4477 20 21C20 21.5523 19.5523 22 19 22H5C4.44772 22 4 21.5523 4 21Z" fill="#12131A"/>
<path d="M13.7087 2.87671C14.8803 1.70515 16.7798 1.70516 17.9513 2.87673L19.1229 4.0483C20.2945 5.21988 20.2945 7.11938 19.1229 8.29095L18.7072 8.70667L13.2929 3.29246L13.7087 2.87671Z" fill="#12131A"/>
<path d="M5.79697 10.7965C5.65973 10.9602 5.5587 11.1517 5.50122 11.3585L4.04383 16.6013C3.8146 17.4259 4.57358 18.1849 5.39825 17.9557L10.641 16.4983C10.8478 16.4408 11.0394 16.3398 11.203 16.2026L5.79697 10.7965Z" fill="#12131A"/>
<path opacity="0.25" d="M18.7072 8.70718L13.293 3.29297L5.88579 10.7001C5.85471 10.7311 5.8251 10.7635 5.797 10.797L11.2031 16.2031C11.2366 16.175 11.2689 16.1454 11.3 16.1143L18.7072 8.70718Z" fill="#12131A"/>
</svg>
