<svg width="24" height="24" viewBox="0 0 24 24" fill="none" xmlns="http://www.w3.org/2000/svg">
<path d="M18.0309 18.0309L14.8285 14.8286C14.1047 15.5525 13.1046 16.0002 12 16.0002C9.79086 16.0002 8 14.2094 8 12.0002C8 10.8956 8.44775 9.89558 9.17167 9.17171L5.96968 5.96973C3.91173 7.52225 2.7744 9.60793 2.27027 10.7401C1.91186 11.545 1.91186 12.4555 2.27027 13.2604C3.1396 15.2127 5.89172 20.0002 12.0005 20.0002C14.5665 20.0002 16.5402 19.1555 18.0309 18.0309Z" fill="#12131A"/>
<path d="M10.5859 10.5859C10.2239 10.9479 10 11.4479 10 12.0002C10 13.1048 10.8954 14.0002 12 14.0002C12.5523 14.0002 13.0524 13.7763 13.4143 13.4144L10.5859 10.5859Z" fill="#12131A"/>
<path d="M12.0003 4C18.1092 4 20.8611 8.78782 21.7302 10.7401C22.0885 11.5448 22.0885 12.4552 21.7302 13.2599C21.5746 13.6096 21.3658 14.0352 21.0963 14.5009C20.8197 14.9789 20.208 15.1421 19.7299 14.8655C19.2519 14.5889 19.0887 13.9772 19.3653 13.4991C19.5948 13.1025 19.7722 12.7407 19.9031 12.4465C20.0309 12.1595 20.0309 11.8405 19.9031 11.5535C19.1103 9.77274 16.8556 6 12.0003 6L11 6.00001C10.4477 6.00001 10 5.5523 10 5.00002C9.99999 4.44773 10.4477 4.00001 11 4.00001L12.0003 4Z" fill="#12131A"/>
<path fill-rule="evenodd" clip-rule="evenodd" d="M2.29289 2.29289C2.68342 1.90237 3.31658 1.90237 3.70711 2.29289L21.7071 20.2929C22.0976 20.6834 22.0976 21.3166 21.7071 21.7071C21.3166 22.0976 20.6834 22.0976 20.2929 21.7071L2.29289 3.70711C1.90237 3.31658 1.90237 2.68342 2.29289 2.29289Z" fill="#12131A"/>
</svg>
