<svg width="24" height="24" viewBox="0 0 24 24" fill="none" xmlns="http://www.w3.org/2000/svg">
<path fill-rule="evenodd" clip-rule="evenodd" d="M2.27008 10.7399C3.13941 8.78756 5.89153 4 12.0003 4C18.1092 4 20.8611 8.78782 21.7303 10.7401C22.0886 11.5448 22.0886 12.4552 21.7303 13.2599C20.8611 15.2122 18.1092 20 12.0003 20C5.89153 20 3.13941 15.2124 2.27008 13.2601C1.91168 12.4552 1.91168 11.5448 2.27008 10.7399ZM12 16C14.2091 16 16 14.2091 16 12C16 9.79086 14.2091 8 12 8C9.79086 8 8 9.79086 8 12C8 14.2091 9.79086 16 12 16Z" fill="#12131A"/>
<path d="M10.5 12C11.3284 12 12 11.3284 12 10.5C12 10.3253 11.9701 10.1577 11.9153 10.0018C11.9434 10.0006 11.9716 10 12 10C13.1046 10 14 10.8954 14 12C14 13.1046 13.1046 14 12 14C10.8954 14 10 13.1046 10 12C10 11.9716 10.0006 11.9434 10.0018 11.9153C10.1577 11.9701 10.3253 12 10.5 12Z" fill="#12131A"/>
</svg>
