<svg width="24" height="24" viewBox="0 0 24 24" fill="none" xmlns="http://www.w3.org/2000/svg">
<path opacity="0.25" d="M4 6.8C4 5.11984 4 4.27976 4.32698 3.63803C4.6146 3.07354 5.07354 2.6146 5.63803 2.32698C6.27976 2 7.11984 2 8.8 2H14.6745C15.1637 2 15.4083 2 15.6385 2.05526C15.8425 2.10425 16.0376 2.18506 16.2166 2.29472C16.4184 2.4184 16.5914 2.59135 16.9373 2.93726L19.0627 5.06274C19.4086 5.40865 19.5816 5.5816 19.7053 5.78343C19.8149 5.96237 19.8957 6.15746 19.9447 6.36154C20 6.59171 20 6.8363 20 7.32548V17.2C20 18.8802 20 19.7202 19.673 20.362C19.3854 20.9265 18.9265 21.3854 18.362 21.673C17.7202 22 16.8802 22 15.2 22H8.8C7.11984 22 6.27976 22 5.63803 21.673C5.07354 21.3854 4.6146 20.9265 4.32698 20.362C4 19.7202 4 18.8802 4 17.2V6.8Z" fill="#12131A"/>
<path d="M14 3.41421C14 2.63317 14.6332 2 15.4142 2V2C15.7893 2 16.149 2.149 16.4142 2.41421L19.5858 5.58579C19.851 5.851 20 6.21071 20 6.58579V6.58579C20 7.36683 19.3668 8 18.5858 8H16C14.8954 8 14 7.10457 14 6V3.41421Z" fill="#12131A"/>
<path fill-rule="evenodd" clip-rule="evenodd" d="M11.5 15C12.3284 15 13 14.3284 13 13.5C13 12.6716 12.3284 12 11.5 12C10.6716 12 10 12.6716 10 13.5C10 14.3284 10.6716 15 11.5 15ZM11.5 17C13.433 17 15 15.433 15 13.5C15 11.567 13.433 10 11.5 10C9.567 10 8 11.567 8 13.5C8 15.433 9.567 17 11.5 17Z" fill="#12131A"/>
<path fill-rule="evenodd" clip-rule="evenodd" d="M14.2929 17.7072L12.7929 16.2072L14.2071 14.793L15.7071 16.293C16.0976 16.6835 16.0976 17.3167 15.7071 17.7072C15.3166 18.0977 14.6834 18.0977 14.2929 17.7072Z" fill="#12131A"/>
</svg>
