<svg width="24" height="24" viewBox="0 0 24 24" fill="none" xmlns="http://www.w3.org/2000/svg">
<path d="M4.14348 4.14258C4 4.73072 4 5.52237 4 6.7991V17.1991C4 18.8793 4 19.7193 4.32698 20.3611C4.6146 20.9256 5.07354 21.3845 5.63803 21.6721C6.27976 21.9991 7.11984 21.9991 8.8 21.9991H15.2C16.8802 21.9991 17.7202 21.9991 18.362 21.6721C18.9265 21.3845 19.3854 20.9256 19.673 20.3611C19.7515 20.207 19.8112 20.0415 19.8565 19.8556L4.14348 4.14258Z" fill="#12131A"/>
<path d="M18 7.99971C16.927 7.9965 16.3332 7.97117 15.8519 7.77182C15.1169 7.46734 14.5328 6.88332 14.2284 6.14823C14.029 5.66696 14.0037 5.0732 14.0005 4.00019H9C8.44772 4.00019 8 3.55248 8 3.00019C8 2.44791 8.44772 2.00019 9 2.00019H14.8373L14.8883 2.0001C14.9286 1.99999 14.9712 1.99988 15.0155 2.00031C15.0371 2.00018 15.0627 2.00018 15.0938 2.00018C15.1702 2.00018 15.2084 2.00018 15.2453 2.00154C15.7245 2.01921 16.1814 2.20847 16.5327 2.53483C16.5597 2.55991 16.5867 2.58692 16.6408 2.64094L19.3592 5.35943C19.4133 5.41345 19.4403 5.44046 19.4654 5.46746C19.7917 5.8188 19.981 6.27572 19.9986 6.75493C20 6.79176 20 6.82995 20 6.90635C20 6.93722 20 6.96263 19.9999 6.9842C20.0003 7.02866 20.0002 7.07139 20.0001 7.11188L20 7.16293V13.0002C20 13.5525 19.5523 14.0002 19 14.0002C18.4477 14.0002 18 13.5525 18 13.0002V7.99971Z" fill="#12131A"/>
<path fill-rule="evenodd" clip-rule="evenodd" d="M2.29289 2.29289C2.68342 1.90237 3.31658 1.90237 3.70711 2.29289L21.7071 20.2929C22.0976 20.6834 22.0976 21.3166 21.7071 21.7071C21.3166 22.0976 20.6834 22.0976 20.2929 21.7071L2.29289 3.70711C1.90237 3.31658 1.90237 2.68342 2.29289 2.29289Z" fill="#12131A"/>
</svg>
