<svg width="24" height="24" viewBox="0 0 24 24" fill="none" xmlns="http://www.w3.org/2000/svg">
<path opacity="0.25" d="M4 6.8C4 5.11984 4 4.27976 4.32698 3.63803C4.6146 3.07354 5.07354 2.6146 5.63803 2.32698C6.27976 2 7.11984 2 8.8 2H14.6745C15.1637 2 15.4083 2 15.6385 2.05526C15.8425 2.10425 16.0376 2.18506 16.2166 2.29472C16.4184 2.4184 16.5914 2.59135 16.9373 2.93726L19.0627 5.06274C19.4086 5.40865 19.5816 5.5816 19.7053 5.78343C19.8149 5.96237 19.8957 6.15746 19.9447 6.36154C20 6.59171 20 6.8363 20 7.32548V17.2C20 18.8802 20 19.7202 19.673 20.362C19.3854 20.9265 18.9265 21.3854 18.362 21.673C17.7202 22 16.8802 22 15.2 22H8.8C7.11984 22 6.27976 22 5.63803 21.673C5.07354 21.3854 4.6146 20.9265 4.32698 20.362C4 19.7202 4 18.8802 4 17.2V6.8Z" fill="#12131A"/>
<path d="M12.7071 10.2929C12.3166 9.90237 11.6834 9.90237 11.2929 10.2929L9.29289 12.2929C8.90237 12.6834 8.90237 13.3166 9.29289 13.7071C9.68342 14.0976 10.3166 14.0976 10.7071 13.7071L11 13.4142V17C11 17.5523 11.4477 18 12 18C12.5523 18 13 17.5523 13 17V13.4142L13.2929 13.7071C13.6834 14.0976 14.3166 14.0976 14.7071 13.7071C15.0976 13.3166 15.0976 12.6834 14.7071 12.2929L12.7071 10.2929Z" fill="#12131A"/>
<path d="M14 3.41421C14 2.63317 14.6332 2 15.4142 2V2C15.7893 2 16.149 2.149 16.4142 2.41421L19.5858 5.58579C19.851 5.851 20 6.21071 20 6.58579V6.58579C20 7.36683 19.3668 8 18.5858 8H16C14.8954 8 14 7.10457 14 6V3.41421Z" fill="#12131A"/>
</svg>
