<svg width="24" height="24" viewBox="0 0 24 24" fill="none" xmlns="http://www.w3.org/2000/svg">
<path fill-rule="evenodd" clip-rule="evenodd" d="M4.00012 6.8C4.00012 5.11984 4.00012 4.27976 4.3271 3.63803C4.61472 3.07354 5.07366 2.6146 5.63815 2.32698C6.27989 2 7.11996 2 8.80012 2H12.2223C12.4814 2 12.611 2 12.7114 2.04685C12.818 2.09653 12.9036 2.18215 12.9533 2.28869C13.0001 2.38915 13.0001 2.51869 13.0001 2.77778C13.0001 4.85044 13.0001 5.88678 13.3749 6.69047C13.7723 7.54277 14.4573 8.2278 15.3096 8.62523C16.1133 9 17.1497 9 19.2223 9C19.4814 9 19.611 9 19.7114 9.04685C19.818 9.09653 19.9036 9.18215 19.9533 9.28869C20.0001 9.38915 20.0001 9.51869 20.0001 9.77778V17.2C20.0001 18.8802 20.0001 19.7202 19.6731 20.362C19.3855 20.9265 18.9266 21.3854 18.3621 21.673C17.7204 22 16.8803 22 15.2001 22H8.80012C7.11996 22 6.27989 22 5.63815 21.673C5.07366 21.3854 4.61472 20.9265 4.3271 20.362C4.00012 19.7202 4.00012 18.8802 4.00012 17.2V6.8ZM12.4619 10.3102C12.2911 9.89954 11.7093 9.89954 11.5385 10.3102L10.7491 12.2082C10.6776 12.3802 10.5163 12.4982 10.3308 12.5143L8.4624 12.6767C8.03367 12.714 7.84919 13.2395 8.16053 13.5366L9.57973 14.8908C9.70842 15.0136 9.76218 15.1956 9.72091 15.3686L9.24027 17.3835C9.13708 17.8161 9.60771 18.158 9.98726 17.9262L11.7396 16.8559C11.8996 16.7582 12.1008 16.7582 12.2608 16.8559L14.0131 17.9262C14.3927 18.158 14.8633 17.8161 14.7601 17.3835L14.2796 15.3692C14.2383 15.1958 14.2923 15.0136 14.4215 14.8908L15.8455 13.5373C16.1578 13.2404 15.9735 12.7139 15.5442 12.6767L13.6697 12.5142C13.4841 12.4981 13.3228 12.3802 13.2512 12.2081L12.4619 10.3102Z" fill="#12131A"/>
<path d="M15 2.70711C15 2.31658 15.3166 2 15.7071 2V2C15.8946 2 16.0745 2.0745 16.2071 2.20711L19.7929 5.79289C19.9255 5.9255 20 6.10536 20 6.29289V6.29289C20 6.68342 19.6834 7 19.2929 7H17C15.8954 7 15 6.10457 15 5V2.70711Z" fill="#12131A"/>
</svg>
