<svg width="24" height="24" viewBox="0 0 24 24" fill="none" xmlns="http://www.w3.org/2000/svg">
<path opacity="0.25" d="M4 6.8C4 5.11984 4 4.27976 4.32698 3.63803C4.6146 3.07354 5.07354 2.6146 5.63803 2.32698C6.27976 2 7.11984 2 8.8 2H14.6745C15.1637 2 15.4083 2 15.6385 2.05526C15.8425 2.10425 16.0376 2.18506 16.2166 2.29472C16.4184 2.4184 16.5914 2.59135 16.9373 2.93726L19.0627 5.06274C19.4086 5.40865 19.5816 5.5816 19.7053 5.78343C19.8149 5.96237 19.8957 6.15746 19.9447 6.36154C20 6.59171 20 6.8363 20 7.32548V17.2C20 18.8802 20 19.7202 19.673 20.362C19.3854 20.9265 18.9265 21.3854 18.362 21.673C17.7202 22 16.8802 22 15.2 22H8.8C7.11984 22 6.27976 22 5.63803 21.673C5.07354 21.3854 4.6146 20.9265 4.32698 20.362C4 19.7202 4 18.8802 4 17.2V6.8Z" fill="#12131A"/>
<path d="M14 3.41421C14 2.63317 14.6332 2 15.4142 2V2C15.7893 2 16.149 2.149 16.4142 2.41421L19.5858 5.58579C19.851 5.851 20 6.21071 20 6.58579V6.58579C20 7.36683 19.3668 8 18.5858 8H16C14.8954 8 14 7.10457 14 6V3.41421Z" fill="#12131A"/>
<path d="M11.5385 10.3099C11.7093 9.89929 12.2911 9.89929 12.4619 10.3099L13.2512 12.2079C13.3228 12.3799 13.4841 12.4979 13.6697 12.514L15.5442 12.6765C15.9735 12.7137 16.1578 13.2402 15.8455 13.537L14.4215 14.8905C14.2923 15.0133 14.2383 15.1956 14.2796 15.369L14.7601 17.3833C14.8633 17.8159 14.3927 18.1578 14.0131 17.926L12.2608 16.8557C12.1008 16.7579 11.8996 16.7579 11.7396 16.8557L9.98726 17.926C9.60771 18.1578 9.13708 17.8159 9.24027 17.3833L9.72091 15.3683C9.76218 15.1953 9.70842 15.0134 9.57973 14.8906L8.16053 13.5364C7.84919 13.2393 8.03367 12.7138 8.4624 12.6765L10.3308 12.514C10.5163 12.4979 10.6776 12.3799 10.7491 12.2079L11.5385 10.3099Z" fill="#12131A"/>
</svg>
