<svg width="24" height="24" viewBox="0 0 24 24" fill="none" xmlns="http://www.w3.org/2000/svg">
<path d="M18.5385 15.3099C18.7093 14.8993 19.2911 14.8993 19.4619 15.3099L20.2512 17.2079C20.3228 17.3799 20.4841 17.4979 20.6697 17.514L22.5442 17.6765C22.9735 17.7137 23.1578 18.2402 22.8455 18.537L21.4215 19.8905C21.2923 20.0133 21.2383 20.1956 21.2796 20.369L21.7601 22.3833C21.8633 22.8159 21.3927 23.1578 21.0131 22.926L19.2608 21.8557C19.1008 21.7579 18.8996 21.7579 18.7396 21.8557L16.9873 22.926C16.6077 23.1578 16.1371 22.8159 16.2403 22.3833L16.7209 20.3683C16.7622 20.1953 16.7084 20.0134 16.5797 19.8906L15.1605 18.5364C14.8492 18.2393 15.0337 17.7138 15.4624 17.6765L17.3308 17.514C17.5163 17.4979 17.6776 17.3799 17.7491 17.2079L18.5385 15.3099Z" fill="#12131A"/>
<path d="M4 6.8C4 5.11984 4 4.27976 4.32698 3.63803C4.6146 3.07354 5.07354 2.6146 5.63803 2.32698C6.27976 2 7.11984 2 8.8 2H12.2C12.48 2 12.62 2 12.727 2.0545C12.8211 2.10243 12.8976 2.17892 12.9455 2.273C13 2.37996 13 2.51997 13 2.8V5C13 7.20914 14.7909 9 17 9H19.2C19.48 9 19.62 9 19.727 9.0545C19.8211 9.10243 19.8976 9.17892 19.9455 9.273C20 9.37996 20 9.51997 20 9.8V12.2C20 12.48 20 12.62 19.9455 12.727C19.8976 12.8211 19.8211 12.8976 19.727 12.9455C19.62 13 19.48 13 19.2 13H19C15.6863 13 13 15.6863 13 19V21.2C13 21.48 13 21.62 12.9455 21.727C12.8976 21.8211 12.8211 21.8976 12.727 21.9455C12.62 22 12.48 22 12.2 22H8.8C7.11984 22 6.27976 22 5.63803 21.673C5.07354 21.3854 4.6146 20.9265 4.32698 20.362C4 19.7202 4 18.8802 4 17.2V6.8Z" fill="#12131A"/>
<path d="M15 2.70711C15 2.31658 15.3166 2 15.7071 2V2C15.8946 2 16.0745 2.0745 16.2071 2.20711L19.7929 5.79289C19.9255 5.9255 20 6.10536 20 6.29289V6.29289C20 6.68342 19.6834 7 19.2929 7H17C15.8954 7 15 6.10457 15 5V2.70711Z" fill="#12131A"/>
</svg>
