<svg width="24" height="24" viewBox="0 0 24 24" fill="none" xmlns="http://www.w3.org/2000/svg">
<path d="M18.5385 15.3099C18.7093 14.8993 19.291 14.8993 19.4618 15.3099L20.2512 17.2079C20.3228 17.3799 20.4841 17.4979 20.6697 17.514L22.5442 17.6765C22.9735 17.7137 23.1578 18.2402 22.8455 18.537L21.4215 19.8905C21.2923 20.0133 21.2383 20.1956 21.2796 20.369L21.7601 22.3833C21.8633 22.8159 21.3927 23.1578 21.0131 22.926L19.2608 21.8557C19.1008 21.7579 18.8996 21.7579 18.7396 21.8557L16.9872 22.926C16.6077 23.1578 16.1371 22.8159 16.2403 22.3833L16.7209 20.3683C16.7622 20.1953 16.7084 20.0134 16.5797 19.8906L15.1605 18.5364C14.8492 18.2393 15.0337 17.7138 15.4624 17.6765L17.3307 17.514C17.5163 17.4979 17.6776 17.3799 17.7491 17.2079L18.5385 15.3099Z" fill="#12131A"/>
<path d="M9.75783 4.00005C10.1647 3.99967 10.5235 3.99934 10.8719 4.08299C11.178 4.15648 11.4707 4.2777 11.7391 4.44218C12.0446 4.62941 12.298 4.88333 12.5855 5.17131L13.4142 6.0001L17.8386 6.0001C18.3657 6.00008 18.8205 6.00007 19.195 6.03067C19.5904 6.06297 19.9836 6.13429 20.362 6.32708C20.9265 6.6147 21.3854 7.07364 21.673 7.63813C21.8658 8.01651 21.9371 8.40973 21.9694 8.80507C22 9.17964 22 9.6344 22 10.1615V12.2001C22 12.4801 22 12.6202 21.9455 12.7271C21.8976 12.8212 21.8211 12.8977 21.727 12.9456C21.62 13.0001 21.48 13.0001 21.2 13.0001H19C15.6863 13.0001 13 15.6864 13 19.0001V19.2001C13 19.4801 13 19.6201 12.9455 19.7271C12.8976 19.8212 12.8211 19.8977 12.727 19.9456C12.62 20.0001 12.48 20.0001 12.2 20.0001H6.16136C5.63426 20.0001 5.17952 20.0001 4.80498 19.9695C4.40963 19.9372 4.01641 19.8659 3.63803 19.6731C3.07355 19.3855 2.6146 18.9266 2.32698 18.3621C2.13419 17.9837 2.06287 17.5905 2.03057 17.1951C1.99997 16.8206 1.99998 16.3658 2 15.8387V8.16152C1.99998 7.6344 1.99997 7.17963 2.03057 6.80507C2.06287 6.40973 2.13419 6.01651 2.32698 5.63813C2.6146 5.07364 3.07355 4.6147 3.63803 4.32708C4.01641 4.13429 4.40963 4.06297 4.80498 4.03067C5.17955 4.00007 5.63431 4.00008 6.16146 4.0001L9.75783 4.00005Z" fill="#12131A"/>
</svg>
