<svg width="24" height="24" viewBox="0 0 24 24" fill="none" xmlns="http://www.w3.org/2000/svg">
<path opacity="0.25" d="M10.8719 4.08299C10.5235 3.99934 10.1647 3.99967 9.75783 4.00005L6.16146 4.0001C5.63431 4.00008 5.17955 4.00007 4.80497 4.03067C4.40963 4.06297 4.01641 4.13429 3.63803 4.32708C3.07354 4.6147 2.6146 5.07364 2.32698 5.63813C2.13419 6.01651 2.06287 6.40973 2.03057 6.80507C1.99997 7.17964 1.99998 7.63439 2 8.16152V15.8386C1.99998 16.3658 1.99997 16.8206 2.03057 17.1951C2.06287 17.5905 2.13419 17.9837 2.32698 18.3621C2.6146 18.9266 3.07355 19.3855 3.63803 19.6731C4.01641 19.8659 4.40963 19.9372 4.80497 19.9695C5.17952 20.0001 5.63425 20.0001 6.16136 20.0001H17.8385C18.3656 20.0001 18.8205 20.0001 19.195 19.9695C19.5904 19.9372 19.9836 19.8659 20.362 19.6731C20.9265 19.3855 21.3854 18.9266 21.673 18.3621C21.8658 17.9837 21.9371 17.5905 21.9694 17.1951C22 16.8206 22 16.3658 22 15.8387V10.1615C22 9.6344 22 9.17964 21.9694 8.80507C21.9371 8.40973 21.8658 8.01651 21.673 7.63813C21.3854 7.07364 20.9265 6.6147 20.362 6.32708C19.9836 6.13429 19.5904 6.06297 19.195 6.03067C18.8205 6.00007 18.3657 6.00008 17.8386 6.0001L13.4142 6.0001L12.5855 5.17131C12.298 4.88333 12.0446 4.62941 11.7391 4.44218C11.4707 4.2777 11.178 4.15648 10.8719 4.08299Z" fill="#12131A"/>
<path d="M11.5385 9.30994C11.7093 8.89929 12.2911 8.89929 12.4619 9.30994L13.2512 11.2079C13.3228 11.3799 13.4841 11.4979 13.6697 11.514L15.5442 11.6765C15.9735 11.7137 16.1578 12.2402 15.8455 12.537L14.4215 13.8905C14.2923 14.0133 14.2383 14.1956 14.2796 14.369L14.7601 16.3833C14.8633 16.8159 14.3927 17.1578 14.0131 16.926L12.2608 15.8557C12.1008 15.7579 11.8996 15.7579 11.7396 15.8557L9.98726 16.926C9.60771 17.1578 9.13708 16.8159 9.24027 16.3833L9.72091 14.3683C9.76218 14.1953 9.70842 14.0134 9.57973 13.8906L8.16053 12.5364C7.84919 12.2393 8.03367 11.7138 8.4624 11.6765L10.3308 11.514C10.5163 11.4979 10.6776 11.3799 10.7491 11.2079L11.5385 9.30994Z" fill="#12131A"/>
</svg>
