<svg width="24" height="24" viewBox="0 0 24 24" fill="none" xmlns="http://www.w3.org/2000/svg">
<path opacity="0.25" d="M10.8719 4.08299C10.5235 3.99934 10.1647 3.99967 9.75783 4.00005L6.16146 4.0001C5.63431 4.00008 5.17955 4.00007 4.80497 4.03067C4.40963 4.06297 4.01641 4.13429 3.63803 4.32708C3.07354 4.6147 2.6146 5.07364 2.32698 5.63813C2.13419 6.01651 2.06287 6.40973 2.03057 6.80507C1.99997 7.17964 1.99998 7.63439 2 8.16152V15.8386C1.99998 16.3658 1.99997 16.8206 2.03057 17.1951C2.06287 17.5905 2.13419 17.9837 2.32698 18.3621C2.6146 18.9266 3.07355 19.3855 3.63803 19.6731C4.01641 19.8659 4.40963 19.9372 4.80497 19.9695C5.17952 20.0001 5.63425 20.0001 6.16136 20.0001H17.8385C18.3656 20.0001 18.8205 20.0001 19.195 19.9695C19.5904 19.9372 19.9836 19.8659 20.362 19.6731C20.9265 19.3855 21.3854 18.9266 21.673 18.3621C21.8658 17.9837 21.9371 17.5905 21.9694 17.1951C22 16.8206 22 16.3658 22 15.8387V10.1615C22 9.6344 22 9.17964 21.9694 8.80507C21.9371 8.40973 21.8658 8.01651 21.673 7.63813C21.3854 7.07364 20.9265 6.6147 20.362 6.32708C19.9836 6.13429 19.5904 6.06297 19.195 6.03067C18.8205 6.00007 18.3657 6.00008 17.8386 6.0001L13.4142 6.0001L12.5855 5.17131C12.298 4.88333 12.0446 4.62941 11.7391 4.44218C11.4707 4.2777 11.178 4.15648 10.8719 4.08299Z" fill="#12131A"/>
<path fill-rule="evenodd" clip-rule="evenodd" d="M11.9999 16C13.8781 16 15.2766 14.3068 15.8561 13.4645C16.0503 13.1823 16.0503 12.8177 15.8561 12.5355C15.2766 11.6932 13.8781 10 11.9999 10C10.1217 10 8.72317 11.6932 8.14365 12.5355C7.94951 12.8177 7.94951 13.1823 8.14365 13.4645C8.72317 14.3068 10.1217 16 11.9999 16ZM12.0001 14C12.5524 14 13.0001 13.5523 13.0001 13C13.0001 12.4477 12.5524 12 12.0001 12C11.4478 12 11.0001 12.4477 11.0001 13C11.0001 13.5523 11.4478 14 12.0001 14Z" fill="#12131A"/>
</svg>
