<svg width="24" height="24" viewBox="0 0 24 24" fill="none" xmlns="http://www.w3.org/2000/svg">
<path opacity="0.25" d="M10.8719 4.08299C10.5235 3.99934 10.1647 3.99967 9.75783 4.00005L6.16146 4.0001C5.63431 4.00008 5.17955 4.00007 4.80497 4.03067C4.40963 4.06297 4.01641 4.13429 3.63803 4.32708C3.07354 4.6147 2.6146 5.07364 2.32698 5.63813C2.13419 6.01651 2.06287 6.40973 2.03057 6.80507C1.99997 7.17964 1.99998 7.63439 2 8.16152V15.8386C1.99998 16.3658 1.99997 16.8206 2.03057 17.1951C2.06287 17.5905 2.13419 17.9837 2.32698 18.3621C2.6146 18.9266 3.07355 19.3855 3.63803 19.6731C4.01641 19.8659 4.40963 19.9372 4.80497 19.9695C5.17952 20.0001 5.63425 20.0001 6.16136 20.0001H17.8385C18.3656 20.0001 18.8205 20.0001 19.195 19.9695C19.5904 19.9372 19.9836 19.8659 20.362 19.6731C20.9265 19.3855 21.3854 18.9266 21.673 18.3621C21.8658 17.9837 21.9371 17.5905 21.9694 17.1951C22 16.8206 22 16.3658 22 15.8387V10.1615C22 9.6344 22 9.17964 21.9694 8.80507C21.9371 8.40973 21.8658 8.01651 21.673 7.63813C21.3854 7.07364 20.9265 6.6147 20.362 6.32708C19.9836 6.13429 19.5904 6.06297 19.195 6.03067C18.8205 6.00007 18.3657 6.00008 17.8386 6.0001L13.4142 6.0001L12.5855 5.17131C12.298 4.88333 12.0446 4.62941 11.7391 4.44218C11.4707 4.2777 11.178 4.15648 10.8719 4.08299Z" fill="#12131A"/>
<path d="M18.5385 15.3099C18.7093 14.8993 19.291 14.8993 19.4618 15.3099L20.2512 17.2079C20.3228 17.3799 20.4841 17.4979 20.6697 17.514L22.5442 17.6765C22.9735 17.7137 23.1578 18.2402 22.8455 18.537L21.4215 19.8905C21.2923 20.0133 21.2383 20.1956 21.2796 20.369L21.7601 22.3833C21.8633 22.8159 21.3927 23.1578 21.0131 22.926L19.2608 21.8557C19.1008 21.7579 18.8996 21.7579 18.7396 21.8557L16.9872 22.926C16.6077 23.1578 16.1371 22.8159 16.2403 22.3833L16.7209 20.3683C16.7622 20.1953 16.7084 20.0134 16.5797 19.8906L15.1605 18.5364C14.8492 18.2393 15.0337 17.7138 15.4624 17.6765L17.3307 17.514C17.5163 17.4979 17.6776 17.3799 17.7491 17.2079L18.5385 15.3099Z" fill="#12131A"/>
</svg>
