<svg width="24" height="24" viewBox="0 0 24 24" fill="none" xmlns="http://www.w3.org/2000/svg">
<path d="M7.25904 7.25879L4.29308 7.5072C2.11557 7.68957 1.2035 10.3812 2.82158 11.8497L5.76456 14.5207L4.80125 18.9569C4.31455 21.1981 6.85057 22.8571 8.70914 21.5133L12.0001 19.1338L15.291 21.5133C17.0689 22.7988 19.4667 21.3365 19.2455 19.2452L16.6516 16.6514L17.2444 19.3813C17.3418 19.8295 16.8346 20.1613 16.4629 19.8926L12.879 17.3012C12.3544 16.9219 11.6457 16.9219 11.1212 17.3012L7.53728 19.8926C7.16556 20.1613 6.65836 19.8295 6.7557 19.3813L7.7803 14.6629C7.89407 14.139 7.71955 13.5941 7.32255 13.2338L4.16571 10.3687C3.84209 10.075 4.0245 9.5367 4.46001 9.50022L8.60895 9.15273C8.76212 9.1399 8.90986 9.10394 9.04806 9.04781L7.25904 7.25879Z" fill="#12131A"/>
<path fill-rule="evenodd" clip-rule="evenodd" d="M9.69909 3.51857C10.5615 1.4886 13.4386 1.4886 14.301 3.51857L15.8586 7.18501L19.707 7.50733C21.8845 7.6897 22.7965 10.3813 21.1785 11.8498L19.474 13.3968C19.0651 13.768 18.4326 13.7373 18.0615 13.3284C17.6903 12.9194 17.7209 12.287 18.1299 11.9158L19.8343 10.3688C20.158 10.0751 19.9755 9.53682 19.54 9.50035L15.3912 9.15286C14.8366 9.10641 14.3534 8.75678 14.1358 8.2446L12.4603 4.30059C12.2878 3.89459 11.7123 3.8946 11.5399 4.30059L11.3334 4.78652C11.1175 5.29484 10.5303 5.53185 10.022 5.3159C9.51371 5.09996 9.2767 4.51282 9.49265 4.00451L9.69909 3.51857Z" fill="#12131A"/>
<path fill-rule="evenodd" clip-rule="evenodd" d="M2.29289 2.29289C2.68342 1.90237 3.31658 1.90237 3.70711 2.29289L21.7071 20.2929C22.0976 20.6834 22.0976 21.3166 21.7071 21.7071C21.3166 22.0976 20.6834 22.0976 20.2929 21.7071L2.29289 3.70711C1.90237 3.31658 1.90237 2.68342 2.29289 2.29289Z" fill="#12131A"/>
</svg>
