<svg width="24" height="24" viewBox="0 0 24 24" fill="none" xmlns="http://www.w3.org/2000/svg">
<path fill-rule="evenodd" clip-rule="evenodd" d="M9.69911 3.51857C10.5615 1.4886 13.4387 1.4886 14.301 3.51857L15.8587 7.18501L19.707 7.50733C21.8845 7.6897 22.7966 10.3813 21.1785 11.8498L18.2356 14.5208L19.1989 18.957C19.6856 21.1983 17.1496 22.8572 15.291 21.5134L12.0001 19.1339L8.70916 21.5134C6.85058 22.8573 4.31457 21.1983 4.80126 18.957L5.76457 14.5208L2.8216 11.8498C1.20351 10.3813 2.11559 7.6897 4.2931 7.50733L8.1415 7.18501L9.69911 3.51857ZM12.4603 4.30059C12.2878 3.8946 11.7124 3.8946 11.5399 4.30059L9.86435 8.2446C9.64676 8.75678 9.16351 9.10641 8.60896 9.15286L4.46002 9.50035C4.02452 9.53682 3.84211 10.0751 4.16572 10.3688L7.32257 13.234C7.71957 13.5943 7.89408 14.1391 7.78031 14.663L6.75571 19.3814C6.65837 19.8297 7.16558 20.1614 7.53729 19.8927L11.1212 17.3013C11.6457 16.9221 12.3544 16.9221 12.879 17.3013L16.4629 19.8927C16.8346 20.1614 17.3418 19.8297 17.2444 19.3814L16.2198 14.663C16.1061 14.1391 16.2806 13.5943 16.6776 13.234L19.8344 10.3688C20.158 10.0751 19.9756 9.53682 19.5401 9.50035L15.3912 9.15286C14.8367 9.10641 14.3534 8.75678 14.1358 8.2446L12.4603 4.30059Z" fill="#12131A"/>
</svg>
