<svg width="24" height="24" viewBox="0 0 24 24" fill="none" xmlns="http://www.w3.org/2000/svg">
<path d="M8.06647 8.06641L3.38276 8.44857C2.06333 8.55623 1.52007 10.1957 2.51413 11.07L6.20677 14.3176C6.34343 14.4378 6.40399 14.6227 6.36488 14.8005L5.1841 20.1676C4.88915 21.5082 6.40083 22.508 7.51909 21.7118L11.7104 18.7275C11.884 18.6039 12.1169 18.6039 12.2904 18.7275L16.4818 21.7118C17.6 22.508 19.1117 21.5082 18.8168 20.1676L18.4358 18.4357L8.06647 8.06641Z" fill="#12131A"/>
<path d="M19.281 10.3459L15.5889 10.0446C14.6462 9.96769 13.8276 9.36534 13.4738 8.4882L12.0002 4.83548L11.778 5.3863C11.5095 6.05188 10.648 6.22628 10.1418 5.71756C9.85948 5.43387 9.77351 5.0092 9.92324 4.63805L10.6091 2.93784C11.1141 1.68609 12.8863 1.68609 13.3913 2.93784L15.3285 7.73995C15.3993 7.91538 15.563 8.03585 15.7516 8.05124L20.6177 8.4483C21.9371 8.55596 22.4804 10.1954 21.4864 11.0697L18.998 13.2582C18.6035 13.6052 18.0078 13.5877 17.6343 13.2182C17.2223 12.8106 17.242 12.1392 17.6772 11.7565L19.281 10.3459Z" fill="#12131A"/>
<path fill-rule="evenodd" clip-rule="evenodd" d="M2.29289 2.29289C2.68342 1.90237 3.31658 1.90237 3.70711 2.29289L21.7071 20.2929C22.0976 20.6834 22.0976 21.3166 21.7071 21.7071C21.3166 22.0976 20.6834 22.0976 20.2929 21.7071L2.29289 3.70711C1.90237 3.31658 1.90237 2.68342 2.29289 2.29289Z" fill="#12131A"/>
</svg>
