<svg width="24" height="24" viewBox="0 0 24 24" fill="none" xmlns="http://www.w3.org/2000/svg">
<path opacity="0.25" d="M8.06629 8.06641L3.38258 8.44857C2.06315 8.55623 1.51989 10.1957 2.51395 11.07L6.20658 14.3176C6.34324 14.4378 6.4038 14.6227 6.3647 14.8005L5.18392 20.1676C4.88896 21.5082 6.40065 22.508 7.5189 21.7118L11.7102 18.7275C11.8838 18.6039 12.1167 18.6039 12.2903 18.7275L16.4816 21.7118C17.5999 22.508 19.1116 21.5082 18.8166 20.1676L18.4356 18.4357L8.06629 8.06641Z" fill="#12131A"/>
<path opacity="0.25" d="M19.2808 10.3459L15.5888 10.0446C14.6461 9.96769 13.8275 9.36534 13.4737 8.4882L12.0001 4.83548L11.7779 5.3863C11.5094 6.05188 10.6479 6.22628 10.1417 5.71756C9.85936 5.43387 9.77338 5.0092 9.92311 4.63805L10.609 2.93784C11.114 1.68609 12.8862 1.68609 13.3912 2.93784L15.3284 7.73995C15.3992 7.91538 15.5629 8.03585 15.7515 8.05124L20.6176 8.4483C21.937 8.55596 22.4803 10.1954 21.4862 11.0697L18.9979 13.2582C18.6034 13.6052 18.0076 13.5877 17.6342 13.2182C17.2222 12.8106 17.2418 12.1392 17.677 11.7565L19.2808 10.3459Z" fill="#12131A"/>
<path fill-rule="evenodd" clip-rule="evenodd" d="M2.29289 2.29289C2.68342 1.90237 3.31658 1.90237 3.70711 2.29289L21.7071 20.2929C22.0976 20.6834 22.0976 21.3166 21.7071 21.7071C21.3166 22.0976 20.6834 22.0976 20.2929 21.7071L2.29289 3.70711C1.90237 3.31658 1.90237 2.68342 2.29289 2.29289Z" fill="#12131A"/>
</svg>
