<svg width="24" height="24" viewBox="0 0 24 24" fill="none" xmlns="http://www.w3.org/2000/svg">
<path d="M10.609 2.93784C11.114 1.68609 12.8862 1.68609 13.3911 2.93784L15.3284 7.73995C15.3992 7.91538 15.5629 8.03585 15.7514 8.05124L20.6176 8.4483C21.937 8.55596 22.4803 10.1954 21.4862 11.0697L17.7937 14.3173C17.6571 14.4375 17.5965 14.6225 17.6356 14.8002L18.8164 20.1673C19.1114 21.508 17.5997 22.5077 16.4814 21.7115L12.2901 18.7272C12.1165 18.6036 11.8837 18.6036 11.7101 18.7272L7.51872 21.7115C6.40047 22.5077 4.88878 21.508 5.18374 20.1673L6.36452 14.8002C6.40362 14.6225 6.34306 14.4375 6.2064 14.3173L2.51376 11.0697C1.5197 10.1954 2.06296 8.55595 3.3824 8.4483L8.2487 8.05123C8.43724 8.03585 8.60096 7.91538 8.67173 7.73995L10.609 2.93784Z" fill="#12131A"/>
</svg>
