<svg width="24" height="24" viewBox="0 0 24 24" fill="none" xmlns="http://www.w3.org/2000/svg">
<path fill-rule="evenodd" clip-rule="evenodd" d="M14.6837 4.65983C13.5783 2.44803 10.422 2.44802 9.31662 4.65981L3.31962 16.6591C2.32272 18.6537 3.77322 21.0002 6.00314 21.0002H17.997C20.2269 21.0002 21.6774 18.6538 20.6805 16.6591L14.6837 4.65983ZM11 9.00024C11 8.44796 11.4477 8.00024 12 8.00024C12.5523 8.00024 13 8.44796 13 9.00024V13.0002C13 13.5525 12.5523 14.0002 12 14.0002C11.4477 14.0002 11 13.5525 11 13.0002V9.00024ZM11 16.0002C11 15.448 11.4477 15.0002 12 15.0002C12.5523 15.0002 13 15.448 13 16.0002C13 16.5525 12.5523 17.0002 12 17.0002C11.4477 17.0002 11 16.5525 11 16.0002Z" fill="#12131A"/>
</svg>
